<svg xmlns="http://www.w3.org/2000/svg" viewBox="0 0 360 690"><rect width="360" height="690" fill="#f2f5f1"/><rect x="25" y="24" width="310" height="117" rx="4" fill="#fff" stroke="#cad4cc"/><text x="42" y="49" font-family="Arial" font-size="10" fill="#62766a">01</text><text x="42" y="76" font-family="Arial" font-weight="bold" font-size="17" fill="#20372d">Client</text><text x="42" y="100" font-family="Arial" font-size="13" fill="#54635a">AI assistant</text><text x="42" y="121" font-family="Arial" font-size="13" fill="#54635a">MCP-compatible client</text><path d="M180 142 v19 m-4 -4 l4 4 4 -4" stroke="#4a7668" fill="none"/><rect x="25" y="167" width="310" height="117" rx="4" fill="#fff" stroke="#cad4cc"/><text x="42" y="192" font-family="Arial" font-size="10" fill="#62766a">02</text><text x="42" y="219" font-family="Arial" font-weight="bold" font-size="17" fill="#20372d">MCP server</text><text x="42" y="243" font-family="Arial" font-size="13" fill="#54635a">Python · FastMCP</text><text x="42" y="264" font-family="Arial" font-size="13" fill="#54635a">Tool registration</text><path d="M180 285 v19 m-4 -4 l4 4 4 -4" stroke="#4a7668" fill="none"/><rect x="25" y="310" width="310" height="117" rx="4" fill="#fff" stroke="#cad4cc"/><text x="42" y="335" font-family="Arial" font-size="10" fill="#62766a">03</text><text x="42" y="362" font-family="Arial" font-weight="bold" font-size="17" fill="#20372d">Service modules</text><text x="42" y="386" font-family="Arial" font-size="13" fill="#54635a">GitHub · Confluence</text><text x="42" y="407" font-family="Arial" font-size="13" fill="#54635a">Databricks tools</text><path d="M180 428 v19 m-4 -4 l4 4 4 -4" stroke="#4a7668" fill="none"/><rect x="25" y="453" width="310" height="117" rx="4" fill="#fff" stroke="#cad4cc"/><text x="42" y="478" font-family="Arial" font-size="10" fill="#62766a">04</text><text x="42" y="505" font-family="Arial" font-weight="bold" font-size="17" fill="#20372d">Enterprise APIs</text><text x="42" y="529" font-family="Arial" font-size="13" fill="#54635a">Code · documentation</text><text x="42" y="550" font-family="Arial" font-size="13" fill="#54635a">Catalogs · SQL</text><path d="M25 578 H335" stroke="#c5d0c6"/><text x="180" y="606" text-anchor="middle" font-family="Arial" font-size="12" fill="#4c6454">Configuration: enable only the services</text><text x="180" y="625" text-anchor="middle" font-family="Arial" font-size="12" fill="#4c6454">that are configured</text></svg>